HIERARCHY
ROOT Hips
{
	OFFSET -3.958830 18.904000 13.208200
	CHANNELS 6 Xposition Yposition Zposition Zrotation Yrotation Xrotation 
	JOINT LHipJoint
	{
		OFFSET 0.000000 0.000000 0.000000
		CHANNELS 3 Zrotation Yrotation Xrotation
		JOINT LeftUpLeg
		{
			OFFSET 1.800000 -1.400000 0.085000
			CHANNELS 3 Zrotation Yrotation Xrotation
			JOINT LeftLeg
			{
				OFFSET 2.215000 -6.000000 0.000000
				CHANNELS 3 Zrotation Yrotation Xrotation
				JOINT LeftFoot
				{
					OFFSET 2.500000 -6.900000 0.000000
					CHANNELS 3 Zrotation Yrotation Xrotation
					JOINT LeftToeBase
					{
						OFFSET 0.200000 -0.500000 1.950000
						CHANNELS 3 Zrotation Yrotation Xrotation
						End Site
						{
							OFFSET 0.000000 0.000000 0.000000
						}
					}
				}
			}
		}
	}
	JOINT RHipJoint
	{
		OFFSET 0.000000 0.000000 0.000000
		CHANNELS 3 Zrotation Yrotation Xrotation
		JOINT RightUpLeg
		{
			OFFSET -1.800000 -1.400000 0.085000
			CHANNELS 3 Zrotation Yrotation Xrotation
			JOINT RightLeg
			{
				OFFSET -2.215000 -6.000000 0.000000
				CHANNELS 3 Zrotation Yrotation Xrotation
				JOINT RightFoot
				{
					OFFSET -2.500000 -6.900000 0.000000
					CHANNELS 3 Zrotation Yrotation Xrotation
					JOINT RightToeBase
					{
						OFFSET -0.200000 -0.500000 1.950000
						CHANNELS 3 Zrotation Yrotation Xrotation
						End Site
						{
							OFFSET 0.000000 0.000000 0.000000
						}
					}
				}
			}
		}
	}
	JOINT LowerBack
	{
		OFFSET 0.000000 0.000000 0.000000
		CHANNELS 3 Zrotation Yrotation Xrotation
		JOINT Spine
		{
			OFFSET -0.087000 1.940000 -0.288900
			CHANNELS 3 Zrotation Yrotation Xrotation
			JOINT Spine1
			{
				OFFSET 0.000000 1.950000 0.060000
				CHANNELS 3 Zrotation Yrotation Xrotation
				JOINT Neck
				{
					OFFSET 0.000000 0.000000 0.000000
					CHANNELS 3 Zrotation Yrotation Xrotation
					JOINT Neck1
					{
						OFFSET 0.000000 1.600000 0.340000
						CHANNELS 3 Zrotation Yrotation Xrotation
						JOINT Head
						{
							OFFSET 0.000000 1.667000 -0.240000
							CHANNELS 3 Zrotation Yrotation Xrotation
							End Site
							{
								OFFSET 0.000000 0.000000 0.000000
							}
						}
					}
				}
				JOINT LeftShoulder
				{
					OFFSET 0.000000 0.000000 0.000000
					CHANNELS 3 Zrotation Yrotation Xrotation
					JOINT LeftArm
					{
						OFFSET 2.700000 1.550000 -0.730000
						CHANNELS 3 Zrotation Yrotation Xrotation
						JOINT LeftForeArm
						{
							OFFSET 5.450000 0.000000 0.000000
							CHANNELS 3 Zrotation Yrotation Xrotation
							JOINT LeftHand
							{
								OFFSET 3.450000 0.000000 0.000000
								CHANNELS 3 Zrotation Yrotation Xrotation
								JOINT LeftHandIndex1
								{
									OFFSET 0.750000 0.000000 0.000000
									CHANNELS 3 Zrotation Yrotation Xrotation
									End Site
									{
										OFFSET 0.000000 0.000000 0.000000
									}
								}
							}
						}
					}
				}
				JOINT RightShoulder
				{
					OFFSET 0.000000 0.000000 0.000000
					CHANNELS 3 Zrotation Yrotation Xrotation
					JOINT RightArm
					{
						OFFSET -2.700000 1.550000 -0.730000
						CHANNELS 3 Zrotation Yrotation Xrotation
						JOINT RightForeArm
						{
							OFFSET -5.450000 0.000000 0.000000
							CHANNELS 3 Zrotation Yrotation Xrotation
							JOINT RightHand
							{
								OFFSET -3.450000 0.000000 0.000000
								CHANNELS 3 Zrotation Yrotation Xrotation
								JOINT RightHandIndex1
								{
									OFFSET -0.750000 0.000000 0.000000
									CHANNELS 3 Zrotation Yrotation Xrotation
									End Site
									{
										OFFSET 0.000000 0.000000 0.000000
									}
								}
							}
						}
					}
				}
			}
		}
	}
}
MOTION
Frames: 6
Frame Time: 0.016667
-0.974750 17.553670 -4.989120 1.098304 5.878403 -9.593271 -15.634226 11.233927 6.408458 34.906342 -4.235892 -10.468666 -52.425952 13.231994 6.386897 -0.023775 12.185993 0.569789 -0.341810 -0.749430 -0.184850 18.360940 -9.435576 -0.156749 -30.938911 -4.062642 -2.824886 -7.802256 -6.502654 21.514890 -0.550731 -5.811607 2.037648 0.054640 1.411750 0.915770 -3.128032 -4.073654 -7.671557 18.536718 -1.043857 9.944331 5.379914 -7.066627 24.083059 -8.257262 4.994627 -9.697722 2.491142 -1.927514 29.513441 -18.428720 3.767590 -14.735230 12.240079 -39.841396 0.735003 6.398241 -67.251007 -10.333421 102.721794 -53.955375 -52.927291 -6.068480 0.429455 0.904750 1.024140 -0.151700 0.125060 1.034149 27.831291 10.727200 49.330426 6.988926 -18.921404 -79.407760 -11.812047 5.216925 1.719784 -1.975804 -0.940060 0.873550 0.927920 -0.226270 
-0.793140 17.485870 -4.986940 0.697160 5.568907 -9.400789 -15.611821 11.240310 6.244617 34.240172 -3.959407 -10.592493 -50.626773 13.359389 7.080719 -0.125412 12.189841 0.545670 -0.380170 -0.813160 -0.209390 18.354317 -9.511048 -0.052621 -30.660894 -3.619560 -2.628819 -7.094440 -6.576797 20.744553 -0.558949 -5.803773 1.997862 0.036220 1.459270 0.990830 -3.149442 -3.825311 -7.647235 18.406124 -0.209383 9.760424 7.309309 -6.827750 24.207759 -8.809828 5.358324 -10.113730 3.726761 -2.633512 27.504099 -18.844220 2.825400 -15.627170 13.914064 -39.827004 1.351390 21.681380 -66.089180 -19.568468 104.519254 -52.404100 -53.380631 -6.044767 0.549884 0.923610 1.058690 -0.149670 0.098040 0.658721 27.400454 10.333638 47.819807 6.877574 -19.942536 -80.402974 -13.788178 6.482297 1.725129 -1.961585 -0.944470 0.882960 1.010580 -0.227910 
-0.631740 17.432020 -4.982970 0.824171 4.351480 -9.463392 -15.671458 11.434345 6.198423 33.716311 -3.843119 -9.994544 -50.274849 13.446370 7.292073 -0.194742 12.216416 0.486946 -0.407730 -0.848970 -0.218000 18.275391 -9.412013 -0.021235 -30.385138 -3.260650 -2.393971 -7.180900 -6.347595 19.901717 -0.532649 -5.661622 2.043762 0.031700 1.442970 0.981530 -2.956706 -4.213624 -7.678867 16.504868 -0.158370 10.354421 9.241812 -7.251126 24.128497 -9.468806 5.265550 -10.059295 3.647097 -2.114204 26.984482 -18.437600 2.481010 -17.755950 15.266598 -40.480117 0.603848 23.263370 -62.624556 -19.464964 107.052139 -50.656366 -53.996813 -6.063425 0.492031 0.969570 1.037760 -0.145930 0.039200 0.630848 28.652269 10.572201 45.092543 8.642704 -20.321125 -81.402834 -15.171662 6.983217 1.719954 -1.891317 -0.965750 0.915560 1.082360 -0.257140 
-0.481460 17.397010 -4.981930 1.281791 3.622158 -9.474244 -15.790645 11.780334 6.209499 32.961709 -4.167360 -9.913400 -50.402751 13.860457 8.183831 -0.126154 12.220052 0.482481 -0.411630 -0.869690 -0.232050 18.125538 -9.240460 -0.001367 -30.157422 -3.189826 -2.065012 -7.390417 -6.130155 19.062671 -0.533964 -5.503260 2.110183 -0.015680 1.394230 0.972280 -2.574017 -5.012219 -7.803702 14.202086 -0.327367 11.306138 11.267919 -7.456084 23.607574 -9.893167 4.241648 -10.362088 1.829207 -1.842220 26.780050 -18.402260 2.287870 -18.756030 14.114714 -41.536208 0.024504 20.134974 -60.049557 -17.290142 109.473569 -51.220298 -55.813311 -6.004263 0.380894 1.004810 0.971790 -0.120090 0.040440 2.585551 30.809064 11.925029 42.843923 6.539755 -22.339010 -83.519731 -12.419879 3.879735 1.736065 -1.882437 -0.939280 0.883550 1.074730 -0.251410 
-0.344970 17.380090 -4.992770 1.635979 2.704790 -9.191744 -15.867794 12.041622 6.167698 32.023207 -4.179891 -10.396602 -50.427058 14.647054 9.423945 -0.140697 12.357205 0.472774 -0.486500 -1.003030 -0.267030 18.013810 -9.187895 0.034932 -29.606303 -2.965370 -2.438905 -7.668274 -5.899646 18.475250 -0.492473 -5.372827 2.149651 -0.071410 1.474810 0.985280 -2.301585 -5.432829 -7.857494 12.456217 0.086504 11.221690 12.591752 -6.705632 23.006392 -9.791995 3.938641 -10.275446 1.382886 -1.950913 27.067862 -18.346370 2.277900 -17.557050 12.808216 -41.983063 -0.780811 11.493219 -59.588702 -11.279912 112.116590 -52.689198 -59.569068 -6.072522 0.103444 1.046050 0.995020 -0.154510 0.043510 3.839931 32.407682 13.075563 42.754248 5.006096 -23.131663 -84.730757 -12.714611 4.153422 1.736946 -1.852173 -1.006610 0.918300 1.131180 -0.257000 
-0.212530 17.380400 -4.983220 2.183046 2.303375 -8.805557 -15.886546 12.243353 6.008686 30.466564 -4.232388 -11.017692 -49.902515 15.620953 11.190328 -0.092051 12.284521 0.495310 -0.408320 -0.883410 -0.199530 17.958637 -9.197051 0.105372 -29.436292 -2.898883 -2.595655 -7.634683 -5.735339 17.700092 -0.476108 -5.299963 2.189055 -0.013700 1.422660 0.961470 -2.187034 -5.665771 -7.787096 10.884694 0.059715 10.445865 12.351044 -6.107975 22.592225 -9.594366 4.113082 -9.673098 1.853819 -1.071159 27.213042 -18.330520 3.846780 -16.933460 11.629418 -40.967139 -1.272453 -0.580441 -59.113327 -1.996164 115.952084 -52.448553 -64.824649 -6.070449 -0.000093 0.971000 1.002710 -0.154340 0.056140 4.607990 32.099330 12.918809 44.547100 6.124926 -21.900910 -86.124599 -12.814697 5.001595 1.721419 -1.939707 -0.959530 0.874640 1.043690 -0.261080 
